# xmcd
# 
# Track frame offsets:
#     150
#     13581
#     32989
#     49377
#     63527
#     78621
#     95886
#     110769
#     129228
#     146960
#     160407
# 
# Disc length: 2365
# 
# Revision: 2
# Processed by: cddbd v1.5.2PL0 Copyright (c) Steve Scherf et al.
# Submitted via: fre:ac v1.0.27
# 
DISCID=a6093b0b
DTITLE=Dana Cooper - Made Of Mud
DYEAR=2005
DGENRE=Americana
TTITLE0=Step into the Light
TTITLE1=Bird on the Wing
TTITLE2=Sit This Out
TTITLE3=Nothing to Fear
TTITLE4=Pretty Boy Floyd
TTITLE5=Comic Tragedy
TTITLE6=Right Out Loud
TTITLE7=Made of Mud
TTITLE8=Death Is a Door
TTITLE9=Empty Glass
TTITLE10=World of Hurt
EXTD=
EXTT0=
EXTT1=
EXTT2=
EXTT3=
EXTT4=
EXTT5=
EXTT6=
EXTT7=
EXTT8=
EXTT9=
EXTT10=
PLAYORDER=
